<svg width="193" height="115" viewBox="0 0 193 115" fill="none" xmlns="http://www.w3.org/2000/svg">
<path fill-rule="evenodd" clip-rule="evenodd" d="M85.966 90.3681C90.9799 83.6078 95.4957 76.4354 98.3826 69.5183C110.014 41.6496 90.9066 26.0104 76.4886 48.4542C70.4119 57.9143 65.7204 71.5432 62.8975 77.4193C67.1672 62.9778 82.3743 20.995 62.6675 14.9564C42.9637 8.91778 39.3498 41.3442 37.4146 50.1017C36.1448 34.7306 37.3071 -1.75461 13.6351 1.04042C-5.98242 3.35631 3.08441 44.2526 14.1087 79.5143C13.367 78.2524 12.5852 76.938 11.7831 75.6228C7.3207 68.3036 2.24023 60.9713 0 62.61V106.043C0.689361 108.741 1.47655 111.47 2.29376 114.101H25.7959H65.4792H91.826C99.9763 106.005 110.655 93.6255 105.504 88.6652C98.49 81.9122 88.2675 88.686 85.966 90.3681" fill="#3AA075"/>
<path fill-rule="evenodd" clip-rule="evenodd" d="M83.0389 59.8791C83.2314 59.4609 83.7262 59.2794 84.1438 59.4716C84.5608 59.6642 84.7434 60.1579 84.5511 60.5762C84.5154 60.654 72.2067 87.5205 52.4127 107.785C52.0923 108.115 51.5654 108.122 51.2361 107.8C50.907 107.481 50.8996 106.955 51.22 106.625C70.8113 86.5681 83.0038 59.9558 83.0389 59.8791Z" fill="#2D7C5A"/>
<path fill-rule="evenodd" clip-rule="evenodd" d="M44.7508 107.408C44.6391 107.853 44.1866 108.124 43.7402 108.013C43.2943 107.903 43.0228 107.45 43.1345 107.003C49.9672 79.8303 53.9647 54.744 58.8946 23.7994L59.1095 22.4515C59.1815 21.9991 59.6078 21.6894 60.0611 21.7614C60.5148 21.8335 60.824 22.2594 60.7521 22.7139L60.5371 24.0606C55.5973 55.0645 51.592 80.1988 44.7508 107.408Z" fill="#2D7C5A"/>
<path fill-rule="evenodd" clip-rule="evenodd" d="M16.9089 19.9767C16.8138 19.5261 17.1011 19.0844 17.5512 18.9889C18.0015 18.8941 18.4432 19.1818 18.5383 19.6317C21.5665 33.9026 24.818 48.2887 28.3038 62.7972C31.7871 77.2961 35.5313 92.0223 39.5477 106.99C39.6663 107.434 39.4017 107.891 38.9573 108.01C38.5133 108.128 38.0565 107.865 37.9379 107.42C33.9492 92.5549 30.2024 77.8106 26.6871 63.1819C23.1744 48.5609 19.919 34.1629 16.9089 19.9767" fill="#2D7C5A"/>
<path fill-rule="evenodd" clip-rule="evenodd" d="M107.485 91.7408C114.172 85.5677 122.873 82.7129 132.22 88.8013C133.587 87.9569 135.32 87.7249 137.016 88.2533C137.143 81.2896 139.102 75.549 145.606 75.8348C153.582 76.1843 156.586 82.6184 157.803 88.8439C159.081 88.9322 160.288 89.2779 161.373 89.8285C163.913 81.821 168.433 73.7097 178.975 77.8934C185.998 80.6809 186.075 88.104 182.948 96.9976C186.347 96.5459 190.004 97.3508 192.086 101.764C193.054 103.816 193.218 106.02 192.743 108.245H115.937H96.6419H78.1705C78.7636 105.365 80.0828 101.689 83.0091 98.9137C88.6132 93.5966 93.7869 99.4884 93.7869 99.4884C93.7869 99.4884 90.0508 94.027 93.4999 90.1475C96.2923 87.0053 102.76 88.1984 107.485 91.7408" fill="#F7AFA7"/>
<path fill-rule="evenodd" clip-rule="evenodd" d="M119.996 91.2924C120.261 90.9254 120.504 90.5432 120.764 90.1724C120.985 89.8624 121.196 89.5901 121.463 89.3155C121.731 89.044 122.476 88.5335 122.533 88.262C122.469 87.6361 121.19 87.7237 120.788 87.7978C120.178 87.9483 119.741 88.1823 119.239 88.5546C118.742 88.942 118.373 89.3242 117.996 89.8278C117.257 90.911 117.367 90.96 118.235 91.5148C119.078 92.1223 119.219 92.2987 119.996 91.2924" fill="#FBD9D5"/>
<path fill-rule="evenodd" clip-rule="evenodd" d="M125.138 91.0032C125.537 90.7738 125.929 90.512 126.317 90.2645C126.643 90.0497 126.974 89.8342 127.297 89.6115C127.433 89.525 127.58 89.4479 127.715 89.3603C127.874 89.2546 128.202 89.1602 128.307 89.0052C128.479 88.7028 128.111 88.4244 127.885 88.2954C127.634 88.1567 127.405 88.101 127.121 88.0653C126.54 87.9919 126.055 88.0633 125.491 88.2048C124.929 88.3666 124.435 88.5621 123.924 88.8435C122.953 89.4343 123.169 89.5491 123.696 90.3311C124.179 91.104 124.23 91.4767 125.138 91.0032" fill="#FBD9D5"/>
<path fill-rule="evenodd" clip-rule="evenodd" d="M113.831 92.4439C114.096 92.0772 114.338 91.6958 114.598 91.3253C114.821 91.0143 115.031 90.7416 115.296 90.4673C115.566 90.1958 116.31 89.6865 116.367 89.4138C116.304 88.7879 115.026 88.8756 114.622 88.9489C114.012 89.099 113.577 89.3337 113.074 89.7057C112.576 90.0927 112.207 90.476 111.832 90.9796C111.09 92.0618 111.203 92.1118 112.069 92.6666C112.912 93.273 113.054 93.4505 113.831 92.4439" fill="#FBD9D5"/>
</svg>
