<svg width="338" height="210" viewBox="0 0 338 210" fill="none" xmlns="http://www.w3.org/2000/svg">
<path fill-rule="evenodd" clip-rule="evenodd" d="M178.54 165.978C169.239 153.438 160.863 140.134 155.508 127.303C133.933 75.6089 169.375 46.5993 196.119 88.2309C207.391 105.779 216.094 131.059 221.33 141.959C213.41 115.171 185.202 37.2961 221.756 26.0951C258.306 14.8938 265.009 75.0424 268.599 91.287C270.954 62.7746 268.798 -4.90262 312.708 0.281954C349.097 4.57774 332.279 80.4372 311.829 145.845C313.205 143.504 314.655 141.066 316.143 138.627C324.421 125.05 333.845 111.449 338 114.489V195.053C336.721 200.059 335.261 205.121 333.745 210H290.151H216.541H167.67C152.552 194.984 132.744 172.02 142.298 162.819C155.309 150.293 174.271 162.858 178.54 165.978" fill="#3AA075"/>
<path fill-rule="evenodd" clip-rule="evenodd" d="M183.969 109.423C183.612 108.648 182.694 108.311 181.92 108.668C181.146 109.025 180.807 109.941 181.164 110.716C181.23 110.861 204.062 160.696 240.778 198.285C241.373 198.898 242.35 198.91 242.961 198.314C243.571 197.722 243.585 196.745 242.991 196.134C206.65 158.93 184.034 109.566 183.969 109.423Z" fill="#2D7C5A"/>
<path fill-rule="evenodd" clip-rule="evenodd" d="M254.99 197.585C255.198 198.411 256.037 198.914 256.865 198.708C257.692 198.503 258.196 197.663 257.989 196.835C245.314 146.431 237.899 99.8974 228.755 42.4976L228.356 39.9973C228.223 39.158 227.432 38.5836 226.591 38.7171C225.749 38.8508 225.176 39.6408 225.309 40.4839L225.708 42.982C234.871 100.492 242.3 147.114 254.99 197.585Z" fill="#2D7C5A"/>
<path fill-rule="evenodd" clip-rule="evenodd" d="M306.636 35.4072C306.813 34.5712 306.28 33.752 305.445 33.5747C304.61 33.399 303.79 33.9326 303.614 34.7671C297.997 61.2386 291.965 87.9237 285.5 114.836C279.038 141.73 272.093 169.046 264.643 196.811C264.423 197.634 264.914 198.482 265.738 198.701C266.562 198.921 267.409 198.433 267.629 197.608C275.028 170.034 281.978 142.685 288.498 115.549C295.014 88.4286 301.053 61.7214 306.636 35.4072" fill="#2D7C5A"/>
<path fill-rule="evenodd" clip-rule="evenodd" d="M143.729 171.398C132.49 161.022 117.866 156.224 102.156 166.457C99.8578 165.038 96.9463 164.648 94.0946 165.536C93.881 153.832 90.5892 144.183 79.6569 144.664C66.2517 145.251 61.2022 156.065 59.1582 166.529C57.009 166.677 54.9811 167.258 53.1572 168.184C48.8878 154.725 41.291 141.092 23.5718 148.124C11.7683 152.809 11.6393 165.285 16.8953 180.233C11.1817 179.474 5.0361 180.827 1.53631 188.245C-0.0914822 191.693 -0.365964 195.398 0.431261 199.138H129.523H161.954H193C192.003 194.297 189.786 188.118 184.868 183.454C175.448 174.517 166.753 184.42 166.753 184.42C166.753 184.42 173.032 175.24 167.235 168.72C162.542 163.439 151.671 165.444 143.729 171.398" fill="#F7AFA7"/>
<path fill-rule="evenodd" clip-rule="evenodd" d="M122.702 170.645C122.257 170.028 121.849 169.385 121.412 168.762C121.04 168.241 120.685 167.783 120.237 167.322C119.786 166.865 118.535 166.008 118.438 165.551C118.546 164.499 120.695 164.646 121.372 164.771C122.396 165.024 123.131 165.417 123.974 166.043C124.811 166.694 125.431 167.336 126.063 168.183C127.306 170.004 127.12 170.086 125.662 171.018C124.246 172.039 124.008 172.336 122.702 170.645" fill="#FBD9D5"/>
<path fill-rule="evenodd" clip-rule="evenodd" d="M114.057 170.159C113.387 169.774 112.728 169.334 112.076 168.918C111.528 168.557 110.971 168.194 110.429 167.82C110.2 167.675 109.953 167.545 109.726 167.398C109.459 167.22 108.907 167.062 108.731 166.801C108.441 166.293 109.061 165.825 109.44 165.608C109.862 165.375 110.247 165.281 110.725 165.221C111.701 165.098 112.516 165.218 113.465 165.456C114.408 165.728 115.239 166.056 116.098 166.529C117.729 167.522 117.367 167.715 116.481 169.03C115.669 170.329 115.583 170.955 114.057 170.159" fill="#FBD9D5"/>
<path fill-rule="evenodd" clip-rule="evenodd" d="M133.066 172.579C132.621 171.963 132.213 171.322 131.776 170.699C131.402 170.177 131.049 169.718 130.603 169.257C130.149 168.801 128.898 167.945 128.803 167.487C128.91 166.435 131.057 166.582 131.735 166.705C132.762 166.957 133.493 167.352 134.338 167.977C135.175 168.628 135.794 169.272 136.426 170.118C137.672 171.937 137.482 172.021 136.027 172.954C134.61 173.973 134.372 174.271 133.066 172.579" fill="#FBD9D5"/>
</svg>
