<svg width="111" height="44" viewBox="0 0 111 44" fill="none" xmlns="http://www.w3.org/2000/svg">
<path d="M94.6777 38.1959C94.6777 36.3385 94.7874 35.2824 95.0066 35.0274C95.4451 34.7725 95.9933 34.6086 96.651 34.5357C97.0895 34.4629 98.0396 34.4265 99.5013 34.4265C99.2821 32.132 99.1724 29.6373 99.1724 26.9422C99.1724 23.9922 99.3551 22.1166 99.7206 21.3154C97.93 21.3154 96.7424 21.2425 96.1577 21.0969C96.1942 20.1135 96.3221 19.0756 96.5414 17.983C96.6145 17.5095 96.8337 16.5808 97.1991 15.1969C98.5512 14.9419 100.817 14.8145 103.996 14.8145C105.275 14.8145 106.444 14.8873 107.504 15.033C108.6 15.1787 109.423 15.3607 109.971 15.5793C110.555 15.7614 110.848 15.9435 110.848 16.1256C110.921 16.1256 110.957 16.7811 110.957 18.0922C110.957 20.1682 110.775 21.4793 110.409 22.0256C110.263 22.2441 109.824 22.3533 109.094 22.3533C107.742 22.3533 106.883 22.2623 106.517 22.0802C106.115 24.6296 105.914 27.9438 105.914 32.0228C105.914 33.6981 105.969 34.5722 106.079 34.645C106.298 34.6086 106.609 34.5904 107.011 34.5904C108.326 34.5904 109.386 34.7907 110.19 35.1913C110.3 35.337 110.354 35.6648 110.354 36.1746C110.354 37.0851 110.226 38.1777 109.971 39.4524C109.715 40.7271 109.349 41.6012 108.874 42.0746C108.436 42.5117 107.011 42.7302 104.599 42.7302C98.8618 42.7302 95.6826 42.2021 95.0614 41.1459C94.8056 40.6725 94.6777 39.6891 94.6777 38.1959Z" fill="#F15E3D"/>
<path d="M48.8337 38.8019C48.8337 36.5439 49.3271 35.1417 50.3137 34.5954C51.2273 34.2676 52.4697 34.1037 54.041 34.1037C54.2603 34.1037 54.5526 34.1402 54.918 34.213C54.918 33.1568 54.8815 31.4633 54.8084 29.1325C54.7353 26.7652 54.6988 24.9806 54.6988 23.7788C54.5526 23.7788 53.9497 23.8334 52.8899 23.9426C51.8302 24.0155 51.209 24.0519 51.0263 24.0519C50.8801 24.0519 50.6609 24.0155 50.3685 23.9426C50.0762 23.8698 49.8569 23.8334 49.7108 23.8334C49.5646 23.6877 49.4915 23.3053 49.4915 22.6862C49.4915 21.7028 49.6377 20.4828 49.93 19.026C50.2223 17.5328 50.4964 16.6223 50.7522 16.2945C51.8485 15.6389 53.9314 15.3112 57.0009 15.3112C58.9742 15.3112 60.2897 15.4386 60.9475 15.6936C61.6053 15.9485 61.9341 16.513 61.9341 17.3871C61.9341 18.4797 61.8428 19.5723 61.6601 20.6649C65.0585 16.7315 68.6762 14.7649 72.5131 14.7649C74.3402 14.7649 76.0029 15.2383 77.5011 16.1852C79.0359 17.0957 80.2053 18.425 81.0092 20.1732V19.9C84.298 16.4766 87.7512 14.7649 91.3689 14.7649C97.6907 14.7649 100.852 19.1717 100.852 27.9852C100.852 29.697 100.742 31.4269 100.523 33.175C100.523 33.1022 100.687 33.0658 101.016 33.0658C101.564 33.0658 102.423 33.1568 103.592 33.3389C103.921 33.7031 104.086 34.8868 104.086 36.8899C104.086 39.4028 103.903 40.9507 103.537 41.5334C100.797 42.2618 98.4216 42.626 96.4118 42.626C94.9866 42.626 93.3422 42.2982 91.4785 41.6426C91.2228 41.4605 90.9487 40.8232 90.6563 39.7306C90.364 38.6016 90.2178 37.6365 90.2178 36.8352C90.2178 35.6334 90.5467 34.5954 91.2045 33.7213C91.6064 33.4664 92.1363 33.3389 92.7941 33.3389C93.3057 33.3389 93.799 33.43 94.274 33.6121C94.274 33.5028 94.274 33.0294 94.274 32.1917C94.3106 31.3541 94.3288 30.8078 94.3288 30.5528C94.3288 28.1855 93.6711 26.1642 92.3556 24.4889C91.04 22.8136 89.5418 21.976 87.8609 21.976C86.8742 21.976 85.8328 22.2855 84.7365 22.9047C83.6402 23.4874 82.7998 24.2704 82.2151 25.2538C82.2516 25.5087 82.2516 25.9275 82.2151 26.5102C82.2151 29.1325 82.1055 31.3358 81.8862 33.1204H81.9958C82.0324 33.084 82.0689 33.0658 82.1055 33.0658C83.2748 33.0658 84.4076 33.1568 85.5039 33.3389C85.8328 33.7031 85.9972 34.8868 85.9972 36.8899C85.9972 39.4028 85.8145 40.9507 85.4491 41.5334C82.7084 42.2618 80.1505 42.626 77.7752 42.626C75.9846 42.626 74.1575 42.2982 72.2939 41.6426C72.0381 41.4605 71.764 40.8232 71.4717 39.7306C71.1793 38.6016 71.0332 37.6365 71.0332 36.8352C71.0332 35.6334 71.362 34.5954 72.0198 33.7213C72.4218 33.4664 72.9516 33.3389 73.6094 33.3389C74.4864 33.3389 75.1624 33.43 75.6375 33.6121C75.6375 33.5028 75.6375 33.0294 75.6375 32.1917C75.674 31.3541 75.6923 30.826 75.6923 30.6075C75.6923 28.313 75.0528 26.3099 73.7738 24.5982C72.5314 22.85 70.9601 21.976 69.0599 21.976C67.4155 21.976 65.899 22.6497 64.5104 23.9973C63.1583 25.3084 62.4823 27.3843 62.4823 30.225C62.4823 31.2448 62.5371 32.5741 62.6467 34.213C63.0852 33.9581 63.6516 33.8306 64.3459 33.8306C65.0037 33.8306 65.4057 33.9216 65.5518 34.1037C65.9172 34.1037 66.1 34.8321 66.1 36.2889C66.1 36.6167 65.9172 38.1099 65.5518 40.7686C62.9208 42.0433 59.5223 42.6806 55.3565 42.6806C52.2139 42.6806 50.2041 42.1525 49.3271 41.0963C48.9982 40.6593 48.8337 39.8945 48.8337 38.8019Z" fill="#F9BF3C"/>
<path d="M31.8165 31.3176C31.8165 28.6954 32.2002 26.1642 32.9676 23.7241C33.7715 21.2475 35.0322 19.117 36.7497 17.3324C38.5038 15.5478 40.5501 14.6555 42.8888 14.6555C43.9486 14.6555 44.8804 14.8376 45.6843 15.2018C46.5248 15.566 47.1643 16.0213 47.6028 16.5676C48.0778 17.0775 48.4615 17.6055 48.7539 18.1518C49.0462 18.6617 49.2472 19.0988 49.3568 19.463C49.4664 19.8272 49.5395 20.0093 49.5761 20.0093C49.5761 18.0426 49.5578 16.7497 49.5212 16.1305C50.2521 15.5114 51.0012 15.1108 51.7686 14.9287C52.5725 14.7102 53.6688 14.6009 55.0574 14.6009C56.1537 14.6009 57.122 14.6373 57.9625 14.7102C58.8395 14.783 59.4973 14.8741 59.9358 14.9833C60.3743 15.0926 60.7214 15.2018 60.9772 15.3111C61.2696 15.4204 61.4523 15.4932 61.5254 15.5296L61.635 15.5843C61.7812 15.912 61.8543 16.9318 61.8543 18.6435C61.8543 20.3917 61.7812 21.4296 61.635 21.7574C61.5254 22.0123 60.9407 22.2491 59.881 22.4676C58.8213 22.6497 57.9077 22.7407 57.1403 22.7407C56.7749 22.7407 56.3729 22.7043 55.9344 22.6315C56.044 22.85 56.0989 23.7787 56.0989 25.4176C56.0989 30.1886 55.9344 32.829 55.6055 33.3389C55.8613 33.2296 56.1719 33.175 56.5374 33.175C58.1452 33.175 59.7165 33.3389 61.2513 33.6667C61.5437 33.8852 61.6898 35.433 61.6898 38.3102C61.6898 39.9126 61.635 40.9324 61.5254 41.3694C61.2696 41.7701 60.4657 42.1525 59.1136 42.5167C57.7615 42.8809 56.2268 43.063 54.5093 43.063C51.4032 43.063 49.4847 42.9901 48.7539 42.8444C48.4981 42.1525 48.3702 41.5697 48.3702 41.0963C48.3702 40.8049 48.425 40.5864 48.5346 40.4407C48.0961 40.5864 46.8537 41.1327 44.8073 42.0796C42.7609 43.0265 41.281 43.5 40.3674 43.5C37.5537 43.5 35.4159 42.3163 33.9543 39.9491C32.5291 37.5818 31.8165 34.7046 31.8165 31.3176ZM38.6682 29.8972C38.6682 31.9367 39.2894 33.6667 40.5319 35.087C41.8108 36.471 43.1446 37.163 44.5332 37.163C45.3006 37.163 46.1776 36.9626 47.1643 36.562C48.1509 36.1614 48.6808 35.7972 48.7539 35.4694C48.8635 33.7941 48.9548 32.2645 49.0279 30.8805C49.1376 29.4602 49.2106 28.3858 49.2472 27.6574C49.3203 26.8926 49.3568 26.4009 49.3568 26.1824V25.5268C49.3568 24.762 48.8452 24.0154 47.822 23.287C46.8354 22.5222 45.7209 22.1398 44.4784 22.1398C42.6513 22.1398 41.2262 22.9775 40.203 24.6528C39.1798 26.2917 38.6682 28.0398 38.6682 29.8972Z" fill="#0765A7"/>
<path d="M0 38.8019C0 36.5439 0.493321 35.1417 1.47996 34.5954C2.39352 34.2676 3.63595 34.1037 5.20727 34.1037C5.42652 34.1037 5.71886 34.1402 6.08429 34.213C6.08429 33.1568 6.04774 31.4633 5.97466 29.1325C5.90157 26.7652 5.86503 24.9806 5.86503 23.7788C5.71886 23.7788 5.11592 23.8334 4.05619 23.9426C2.99646 24.0155 2.37525 24.0519 2.19254 24.0519C2.04637 24.0519 1.82711 24.0155 1.53477 23.9426C1.24244 23.8698 1.02318 23.8334 0.877014 23.8334C0.730845 23.6877 0.657761 23.3053 0.657761 22.6862C0.657761 21.7028 0.80393 20.4828 1.09627 19.026C1.38861 17.5328 1.66267 16.6223 1.91847 16.2945C2.97819 15.6389 4.91493 15.3112 7.72869 15.3112C9.95776 15.3112 11.4012 15.4386 12.0589 15.6936C12.7532 15.9121 13.1004 16.4766 13.1004 17.3871C13.1004 18.4797 13.009 19.5723 12.8263 20.6649C16.2613 16.7315 19.9703 14.7649 23.9534 14.7649C30.2387 14.7649 33.3813 19.1717 33.3813 27.9852C33.3813 29.7698 33.2717 31.4997 33.0525 33.175C33.0525 33.1022 33.2169 33.0658 33.5458 33.0658C34.0939 33.0658 34.9527 33.1568 36.122 33.3389C36.4509 33.7031 36.6153 34.8868 36.6153 36.8899C36.6153 39.4028 36.4326 40.9507 36.0672 41.5334C33.3265 42.2618 30.9513 42.626 28.9415 42.626C27.5163 42.626 25.8719 42.2982 24.0083 41.6426C23.7525 41.4605 23.4784 40.8232 23.1861 39.7306C22.8937 38.6016 22.7476 37.6365 22.7476 36.8352C22.7476 35.6334 23.0764 34.5954 23.7342 33.7213C24.1362 33.4664 24.666 33.3389 25.3238 33.3389C25.8354 33.3389 26.3287 33.43 26.8037 33.6121C26.8037 33.5028 26.8037 33.0294 26.8037 32.1917C26.8403 31.3541 26.8586 30.826 26.8586 30.6075C26.8586 28.313 26.2191 26.3099 24.9401 24.5982C23.6977 22.85 22.1263 21.976 20.2261 21.976C18.5817 21.976 17.0652 22.6497 15.6766 23.9973C14.3246 25.3084 13.6485 27.3843 13.6485 30.225C13.6485 31.2448 13.7033 32.5741 13.813 34.213C14.2515 33.9581 14.8179 33.8306 15.5122 33.8306C16.1699 33.8306 16.5719 33.9216 16.7181 34.1037C17.0835 34.1037 17.2662 34.8321 17.2662 36.2889C17.2662 36.6167 17.0835 38.1099 16.7181 40.7686C14.087 42.0433 10.7434 42.6806 6.68723 42.6806C3.36189 42.6806 1.29725 42.1707 0.493321 41.151C0.16444 40.7504 0 39.9673 0 38.8019Z" fill="#3AA075"/>
<path d="M102.458 1.42586C101.444 1.01075 100.743 1.27484 100.354 2.21813C99.9791 3.12773 99.9405 4.37181 100.238 5.95039C100.549 7.49527 101.163 9.02602 102.079 10.5426C102.289 10.5108 102.785 10.4578 103.566 10.3838C104.361 10.2762 104.905 10.2034 105.197 10.1655C105.537 10.1077 106.013 10.0073 106.625 9.8641C107.251 9.68723 107.721 9.50556 108.035 9.31907C108.348 9.13258 108.673 8.8718 109.009 8.53671C109.378 8.21547 109.653 7.83587 109.834 7.39792C110.195 6.52201 110.192 5.71377 109.826 4.97321C109.459 4.23265 108.904 3.71016 108.16 3.40575C106.977 2.92146 105.885 2.88776 104.884 3.30465C104.112 2.39805 103.303 1.77178 102.458 1.42586Z" fill="#F15E3D"/>
</svg>
